# xmcd CD database file
#
# Track frame offsets:
#	150
#	14080
#	28160
#	52445
#	65547
#	81195
#	99712
#	113320
#	124370
#	141355
#	149312
#	158240
#	185212
#	203677
#
# Disc length: 2933 seconds
#
# Revision: 0
# Processed by: cddbd v1.5.2PL0 Copyright (c) Steve Scherf et al.
# Submitted via: CDex 1.70beta2
#
DISCID=d80b730e
DTITLE=東京ホット倶楽部バンド - 白い水玉
DYEAR=1988
DGENRE=Jazz
TTITLE0=C'est Si Bon
TTITLE1=Tea For Two
TTITLE2=La Mer
TTITLE3=Autumn Leaves
TTITLE4=Sweet Georgia Brown
TTITLE5=Singin' In The Rain
TTITLE6=In The Chapel In The Moonlight
TTITLE7=Le Pois Blanc
TTITLE8=Stardust
TTITLE9=I'll See You In My Dream
TTITLE10=Tschirglo Waltz
TTITLE11=Nuages
TTITLE12=Ajisai
TTITLE13=A Nightingale Sang In Berkeley Square
EXTD=YEAR: 1988
EXTT0=
EXTT1=
EXTT2=
EXTT3=
EXTT4=
EXTT5=
EXTT6=
EXTT7=
EXTT8=
EXTT9=
EXTT10=
EXTT11=
EXTT12=
EXTT13=
PLAYORDER=
